<?xml version="1.0" standalone="no"?>
<!DOCTYPE svg PUBLIC "-//W3C//DTD SVG 20010904//EN"
 "http://www.w3.org/TR/2001/REC-SVG-20010904/DTD/svg10.dtd">
<svg version="1.0" xmlns="http://www.w3.org/2000/svg"
 width="250.000000pt" height="250.000000pt" viewBox="0 0 250.000000 250.000000"
 preserveAspectRatio="xMidYMid meet">

<g transform="translate(0.000000,250.000000) scale(0.100000,-0.100000)"
fill="#000000" stroke="none">
<path d="M1827 2093 c-40 -46 -100 -204 -113 -301 -5 -42 -2 -57 26 -111 35
-70 79 -233 105 -386 l17 -100 69 3 c38 2 69 7 69 12 0 5 8 9 18 9 18 -1 215
40 220 45 5 6 -30 154 -64 269 -92 314 -195 516 -285 562 -36 19 -42 19 -62
-2z"/>
<path d="M860 2046 c-44 -29 -72 -61 -98 -107 l-20 -37 58 -20 c42 -14 61 -16
64 -8 3 6 4 -61 3 -149 -3 -147 -2 -162 16 -180 56 -59 150 -258 192 -408 9
-32 20 -55 25 -52 6 4 10 0 10 -7 1 -38 21 30 36 123 18 113 40 193 86 311
l30 77 -47 88 c-110 204 -256 394 -302 392 -10 0 -34 -11 -53 -23z"/>
<path d="M1105 1050 c4 -6 11 -8 16 -5 14 9 11 15 -7 15 -8 0 -12 -5 -9 -10z"/>
<path d="M1111 1014 c0 -11 3 -14 6 -6 3 7 2 16 -1 19 -3 4 -6 -2 -5 -13z"/>
<path d="M116 758 c-16 -60 4 -112 63 -166 90 -83 184 -81 284 8 38 33 91 100
69 86 -7 -4 -25 -1 -40 6 -15 7 -69 15 -121 17 -52 1 -101 7 -110 11 -18 10
-132 60 -136 60 -1 0 -5 -10 -9 -22z"/>
</g>
</svg>
